<?xml version="1.0" standalone="no"?>
<!DOCTYPE svg PUBLIC "-//W3C//DTD SVG 20010904//EN"
 "http://www.w3.org/TR/2001/REC-SVG-20010904/DTD/svg10.dtd">
<svg version="1.0" xmlns="http://www.w3.org/2000/svg"
 width="544.000000pt" height="408.000000pt" viewBox="0 0 544.000000 408.000000"
 preserveAspectRatio="xMidYMid meet">

<g transform="translate(0.000000,408.000000) scale(0.100000,-0.100000)"
fill="#000000" stroke="none">
<path d="M2813 3433 c9 -2 23 -2 30 0 6 3 -1 5 -18 5 -16 0 -22 -2 -12 -5z"/>
<path d="M3038 3433 c7 -3 16 -2 19 1 4 3 -2 6 -13 5 -11 0 -14 -3 -6 -6z"/>
<path d="M3087 3410 c3 -11 9 -20 15 -20 5 0 4 9 -2 20 -6 11 -12 20 -14 20
-2 0 -2 -9 1 -20z"/>
<path d="M2756 3405 c-3 -8 -1 -15 4 -15 6 0 10 7 10 15 0 8 -2 15 -4 15 -2 0
-6 -7 -10 -15z"/>
<path d="M2405 3369 c4 -6 9 -8 12 -5 3 3 15 1 27 -5 20 -10 20 -10 2 5 -22
18 -51 22 -41 5z"/>
<path d="M2747 3373 c-4 -3 -7 -13 -7 -21 0 -18 13 -7 16 13 2 17 1 18 -9 8z"/>
<path d="M3111 3358 c-1 -16 4 -28 9 -28 12 0 12 8 0 35 -8 18 -9 17 -9 -7z"/>
<path d="M3368 3337 c-37 -23 -68 -45 -68 -49 0 -4 28 12 63 35 43 29 77 43
112 48 l50 6 -45 1 c-37 1 -58 -7 -112 -41z"/>
<path d="M3568 3363 c7 -3 16 -2 19 1 4 3 -2 6 -13 5 -11 0 -14 -3 -6 -6z"/>
<path d="M2489 3330 c13 -11 27 -20 32 -20 18 0 8 10 -23 25 l-33 16 24 -21z"/>
<path d="M2151 3318 c-12 -12 -17 -26 -13 -32 4 -6 25 -33 47 -60 37 -46 38
-49 20 -62 -10 -8 -15 -14 -10 -14 5 0 16 7 26 16 16 15 15 18 -22 57 -42 45
-50 81 -21 103 10 8 12 13 5 14 -7 0 -21 -10 -32 -22z"/>
<path d="M2725 3319 c-4 -6 -5 -12 -2 -15 2 -3 7 2 10 11 7 17 1 20 -8 4z"/>
<path d="M3700 3320 c0 -5 5 -10 11 -10 5 0 7 5 4 10 -3 6 -8 10 -11 10 -2 0
-4 -4 -4 -10z"/>
<path d="M3131 3303 c-1 -20 4 -23 32 -22 29 2 29 2 5 6 -15 2 -29 12 -31 21
-3 12 -5 10 -6 -5z"/>
<path d="M3713 3293 c-7 -2 -13 -11 -13 -18 0 -8 -9 -19 -20 -25 -11 -6 -18
-15 -15 -20 3 -5 0 -12 -7 -17 -7 -4 -19 -15 -26 -24 -10 -14 -10 -18 3 -23
10 -3 13 -2 10 4 -4 6 11 32 33 58 37 45 57 73 50 71 -2 0 -9 -3 -15 -6z"/>
<path d="M2698 3283 c7 -3 16 -2 19 1 4 3 -2 6 -13 5 -11 0 -14 -3 -6 -6z"/>
<path d="M3245 3280 l-40 -7 43 -2 c23 0 42 4 42 9 0 6 -1 9 -2 9 -2 -1 -21
-5 -43 -9z"/>
<path d="M2598 3273 c7 -3 16 -2 19 1 4 3 -2 6 -13 5 -11 0 -14 -3 -6 -6z"/>
<path d="M1878 3173 c6 -2 18 -2 25 0 6 3 1 5 -13 5 -14 0 -19 -2 -12 -5z"/>
<path d="M3963 3169 c14 -8 22 -8 30 0 8 8 3 11 -18 11 -26 -1 -28 -2 -12 -11z"/>
<path d="M1799 3153 c-13 -15 -12 -15 11 -3 34 17 36 20 18 20 -9 0 -22 -7
-29 -17z"/>
<path d="M3918 3163 c7 -3 16 -2 19 1 4 3 -2 6 -13 5 -11 0 -14 -3 -6 -6z"/>
<path d="M4018 3163 c6 -2 18 -2 25 0 6 3 1 5 -13 5 -14 0 -19 -2 -12 -5z"/>
<path d="M3808 3143 c6 -2 18 -2 25 0 6 3 1 5 -13 5 -14 0 -19 -2 -12 -5z"/>
<path d="M1755 3120 c-10 -11 -15 -20 -11 -20 11 0 39 30 34 36 -3 2 -13 -5
-23 -16z"/>
<path d="M2108 3133 c7 -3 16 -2 19 1 4 3 -2 6 -13 5 -11 0 -14 -3 -6 -6z"/>
<path d="M3738 3133 c6 -2 18 -2 25 0 6 3 1 5 -13 5 -14 0 -19 -2 -12 -5z"/>
<path d="M4109 3107 c14 -18 51 -42 51 -33 0 3 -15 15 -32 27 -24 17 -29 18
-19 6z"/>
<path d="M1710 3085 c-14 -16 -3 -20 19 -6 8 5 9 11 3 15 -5 3 -15 -1 -22 -9z"/>
<path d="M1770 3020 c0 -5 5 -10 11 -10 5 0 7 5 4 10 -3 6 -8 10 -11 10 -2 0
-4 -4 -4 -10z"/>
<path d="M4034 3005 c-12 -8 -25 -11 -29 -7 -5 4 -5 1 -1 -6 5 -8 12 -9 24 -2
34 19 47 30 37 30 -6 0 -20 -7 -31 -15z"/>
<path d="M1888 2973 c37 -19 40 -35 12 -63 -16 -16 -17 -20 -5 -20 8 0 21 15
28 33 14 31 13 32 -17 49 -17 9 -35 17 -41 17 -5 0 5 -8 23 -16z"/>
<path d="M3945 2968 c-29 -16 -31 -18 -20 -26 6 -4 15 -16 21 -26 6 -11 17
-22 25 -24 9 -2 10 -1 3 5 -13 10 -37 53 -32 58 2 2 15 8 28 14 14 5 18 10 10
10 -8 0 -24 -5 -35 -11z"/>
<path d="M1763 2883 c9 -2 23 -2 30 0 6 3 -1 5 -18 5 -16 0 -22 -2 -12 -5z"/>
<path d="M4058 2883 c12 -2 30 -2 40 0 9 3 -1 5 -23 4 -22 0 -30 -2 -17 -4z"/>
<path d="M1638 2873 c6 -2 18 -2 25 0 6 3 1 5 -13 5 -14 0 -19 -2 -12 -5z"/>
<path d="M4216 2871 c45 -11 54 -19 54 -47 l0 -24 -1344 0 -1345 0 -4 28 c-4
25 -4 25 -6 -5 l-1 -33 1360 0 1360 0 0 30 c0 23 -7 33 -30 45 -16 8 -39 15
-52 14 -18 -1 -17 -3 8 -8z"/>
<path d="M1600 2860 c-9 -6 -10 -10 -3 -10 6 0 15 5 18 10 8 12 4 12 -15 0z"/>
<path d="M1623 2718 c-17 -6 -44 -23 -59 -39 -23 -24 -28 -38 -31 -101 -5 -94
11 -127 97 -192 36 -27 76 -57 89 -67 30 -24 41 -98 17 -118 -30 -25 -46 -6
-46 54 l0 55 -75 0 -75 0 0 -60 c0 -99 33 -140 129 -161 75 -16 155 3 199 47
l34 34 -4 94 c-4 114 -11 127 -123 207 -81 58 -100 86 -90 127 4 17 12 22 28
20 18 -2 23 -10 25 -45 l3 -43 75 0 74 0 0 45 c0 67 -21 108 -66 130 -45 22
-154 29 -201 13z"/>
<path d="M2269 2707 c-79 -42 -84 -61 -84 -297 0 -180 2 -210 19 -242 38 -78
150 -109 216 -60 31 24 31 24 37 3 4 -18 13 -21 54 -21 l49 0 0 170 0 170 -95
0 -95 0 0 -44 c0 -36 4 -45 21 -49 20 -5 21 -11 16 -68 -6 -66 -16 -85 -42
-76 -13 6 -15 32 -13 214 3 200 4 208 23 208 18 0 20 -8 23 -62 l3 -63 81 0
80 0 -4 74 c-3 63 -7 79 -28 102 -61 65 -179 84 -261 41z"/>
<path d="M1960 2405 l0 -315 80 0 80 0 0 315 0 315 -80 0 -80 0 0 -315z"/>
<path d="M2630 2405 l0 -315 70 0 70 0 0 197 c0 108 2 194 4 192 2 -2 16 -87
31 -189 15 -101 29 -188 31 -192 3 -5 25 -8 49 -8 33 0 45 4 49 18 2 9 15 96
28 192 l23 175 5 -190 5 -190 68 -3 67 -3 0 316 0 315 -104 0 -103 0 -6 -37
c-3 -21 -11 -84 -18 -141 -7 -56 -14 -101 -15 -99 -2 2 -10 50 -19 108 -8 57
-17 119 -20 137 l-6 32 -104 0 -105 0 0 -315z"/>
<path d="M3249 2718 c-6 -16 -84 -620 -80 -623 2 -3 39 -5 82 -5 85 0 89 3 89
78 0 29 3 32 29 32 31 0 41 -18 41 -77 l0 -33 79 0 c44 0 82 3 84 8 2 4 -17
144 -42 312 l-46 305 -117 3 c-65 1 -118 1 -119 0z m144 -400 c-7 -13 -53 -9
-53 5 0 25 21 193 27 217 4 16 11 -21 18 -95 6 -66 10 -123 8 -127z"/>
<path d="M1740 2025 c0 -8 -40 -197 -46 -218 -5 -16 2 -18 88 -15 79 3 93 6
96 21 3 15 -5 17 -63 17 -65 0 -67 1 -61 23 3 12 6 25 6 30 0 4 27 7 60 7 53
0 60 2 60 20 0 17 -7 20 -48 20 -57 0 -61 2 -54 35 4 23 8 25 67 25 54 0 63 3
68 20 5 19 0 20 -84 20 -49 0 -89 -2 -89 -5z"/>
<path d="M1938 1913 c-24 -116 -24 -118 -5 -121 26 -5 33 8 47 85 7 35 15 63
19 63 3 0 18 -33 32 -72 23 -64 29 -73 52 -76 15 -2 27 -1 27 1 0 2 11 55 25
117 14 62 25 115 25 117 0 1 -11 3 -24 3 -22 0 -25 -8 -43 -82 l-19 -83 -29
82 c-27 75 -33 83 -56 83 -25 0 -27 -4 -51 -117z"/>
<path d="M2240 2011 c-47 -25 -73 -72 -74 -133 -1 -41 3 -53 23 -69 25 -21 75
-25 115 -10 17 7 26 7 28 -1 8 -24 35 2 42 40 3 22 9 47 12 56 5 13 -2 16 -45
16 -57 0 -72 -22 -23 -35 l27 -7 -24 -19 c-36 -29 -93 -23 -105 12 -29 84 69
165 130 108 23 -21 54 -20 54 1 0 6 -11 22 -25 35 -30 31 -85 33 -135 6z"/>
<path d="M2460 2023 c0 -5 -11 -59 -24 -120 l-24 -113 23 0 c14 0 26 7 29 18
6 20 46 209 46 217 0 3 -11 5 -25 5 -14 0 -25 -3 -25 -7z"/>
<path d="M2531 1923 c-26 -134 -26 -135 1 -131 19 3 25 14 37 76 8 39 18 72
21 72 4 0 18 -33 32 -72 22 -63 29 -73 51 -76 21 -3 27 2 32 20 9 40 45 212
45 215 0 2 -11 3 -24 3 -22 0 -26 -6 -36 -57 -23 -115 -25 -115 -60 -14 -22
64 -27 71 -51 71 -25 0 -27 -3 -48 -107z"/>
<path d="M2769 1910 l-25 -120 94 0 c84 0 93 2 90 18 -3 14 -16 18 -66 20 -52
2 -63 6 -58 18 3 9 6 22 6 30 0 10 14 14 55 14 44 0 56 4 65 20 10 19 8 20
-45 20 -54 0 -55 0 -55 30 l0 30 64 0 c60 0 76 8 76 36 0 2 -40 4 -88 4 l-89
0 -24 -120z"/>
<path d="M3015 2018 c-8 -23 -45 -197 -45 -213 0 -12 16 -15 90 -15 83 0 90 1
90 20 0 18 -7 20 -64 20 l-64 0 7 28 c7 24 12 27 56 30 88 6 104 42 19 42 -54
0 -55 0 -52 28 3 26 6 27 63 30 54 3 74 12 75 35 0 13 -170 8 -175 -5z"/>
<path d="M3235 2018 c-6 -20 -45 -206 -45 -218 0 -5 11 -10 24 -10 22 0 26 6
32 46 l6 45 42 -3 41 -3 -3 -42 c-3 -40 -2 -43 21 -43 22 0 26 6 31 45 4 25 4
49 1 55 -3 6 3 22 14 36 23 30 27 74 9 92 -17 17 -167 16 -173 0z m135 -47 c0
-30 -28 -51 -66 -51 -31 0 -34 3 -34 28 0 38 6 42 57 42 36 0 43 -3 43 -19z"/>
<path d="M3452 1918 c-12 -62 -22 -116 -22 -120 0 -5 10 -8 23 -8 21 0 25 8
45 108 27 132 27 132 -1 132 -21 0 -24 -9 -45 -112z"/>
<path d="M3565 2018 c-5 -17 -45 -212 -45 -221 0 -4 11 -7 24 -7 21 0 25 7 36
63 18 96 24 98 55 13 25 -69 30 -76 54 -76 26 0 28 3 45 93 10 50 20 104 23
120 5 24 2 27 -19 27 -23 0 -26 -6 -38 -70 -7 -39 -17 -73 -20 -75 -4 -3 -20
29 -35 70 -23 65 -30 75 -51 75 -14 0 -26 -6 -29 -12z"/>
<path d="M3840 2008 c-69 -47 -92 -147 -45 -193 27 -28 80 -34 118 -14 16 9
22 9 25 0 5 -15 29 -14 35 3 3 7 9 34 12 60 l7 46 -45 0 c-31 0 -47 -5 -51
-15 -6 -17 17 -31 34 -20 5 3 10 -1 10 -9 0 -31 -82 -50 -108 -24 -22 22 -14
84 14 117 32 38 86 43 106 11 18 -29 48 -26 48 4 0 55 -98 76 -160 34z"/>
<path d="M978 1590 l-66 -120 27 0 c20 0 31 7 39 26 11 22 17 25 55 22 35 -2
43 -7 45 -25 3 -17 10 -23 28 -23 28 0 29 14 11 150 -12 84 -13 85 -42 88 -29
2 -33 -3 -97 -118z m88 -25 c-3 -8 -13 -11 -25 -8 -26 7 -26 8 2 52 l22 36 3
-33 c2 -19 1 -40 -2 -47z"/>
<path d="M1235 1698 c-32 -17 -45 -39 -45 -75 0 -36 13 -46 73 -57 68 -12 59
-56 -11 -56 -26 0 -35 5 -39 20 -3 13 -14 20 -29 20 -17 0 -24 -6 -24 -20 0
-61 110 -84 169 -34 45 37 43 80 -4 100 -19 7 -43 14 -53 14 -29 0 -48 26 -32
45 18 22 67 19 82 -5 7 -11 21 -20 30 -20 26 0 24 56 -1 70 -25 13 -90 12
-116 -2z"/>
<path d="M1441 1684 c-34 -28 -42 -72 -16 -97 7 -8 35 -18 60 -21 40 -6 46
-10 43 -29 -2 -18 -11 -23 -45 -25 -34 -3 -42 0 -48 17 -7 22 -14 25 -39 15
-22 -8 -20 -30 4 -54 37 -37 157 -19 174 25 10 27 7 62 -6 73 -7 5 -33 14 -58
19 -39 7 -45 12 -45 33 0 16 6 26 18 28 30 6 67 -7 67 -24 0 -21 44 -14 48 8
2 9 -6 26 -17 37 -31 31 -100 29 -140 -5z"/>
<path d="M1690 1687 c-71 -47 -95 -144 -49 -193 21 -23 30 -25 77 -22 43 4 59
11 88 38 38 37 58 95 48 135 -16 62 -102 85 -164 42z m96 -25 c34 -22 22 -109
-19 -137 -33 -23 -74 -19 -92 9 -33 51 14 136 75 136 14 0 30 -4 36 -8z"/>
<path d="M1970 1703 c-85 -31 -127 -187 -60 -223 57 -31 170 12 170 64 0 14
-39 4 -55 -14 -27 -30 -83 -27 -95 4 -11 31 4 90 31 117 31 31 78 24 92 -13 3
-10 16 -18 27 -18 28 0 27 43 -2 70 -21 19 -73 26 -108 13z"/>
<path d="M2155 1698 c-6 -16 -45 -207 -45 -219 0 -5 10 -9 23 -9 21 0 25 8 45
108 27 130 27 132 2 132 -11 0 -23 -6 -25 -12z"/>
<path d="M2257 1593 c-61 -109 -64 -118 -45 -121 13 -3 28 6 42 23 18 22 28
26 61 23 33 -2 41 -7 43 -25 3 -17 10 -23 28 -23 28 0 27 -5 14 97 -19 147
-18 143 -49 143 -26 0 -35 -11 -94 -117z m93 -4 c0 -16 -7 -29 -17 -33 -28
-11 -35 9 -17 48 19 39 34 33 34 -15z"/>
<path d="M2460 1690 c0 -16 7 -20 35 -20 32 0 35 -2 30 -22 -8 -35 -35 -169
-35 -174 0 -2 11 -4 24 -4 21 0 25 7 40 83 26 122 23 117 61 117 28 0 45 13
45 36 0 2 -45 4 -100 4 -93 0 -100 -1 -100 -20z"/>
<path d="M2690 1698 c0 -7 -11 -62 -24 -121 l-24 -108 92 3 c77 3 91 6 94 21
3 15 -5 17 -63 17 -57 0 -66 2 -61 16 3 9 6 22 6 30 0 10 14 14 55 14 44 0 56
4 65 20 10 19 8 20 -45 20 -54 0 -55 0 -55 30 l0 30 64 0 c60 0 76 8 76 36 0
2 -40 4 -90 4 -65 0 -90 -3 -90 -12z"/>
<path d="M2944 1700 c-28 -11 -54 -48 -54 -77 0 -26 30 -48 80 -58 40 -9 54
-24 38 -42 -17 -20 -75 -16 -99 8 -25 25 -45 20 -41 -12 3 -34 29 -49 79 -49
57 0 97 21 113 60 11 27 10 33 -5 50 -10 11 -23 20 -29 20 -6 0 -28 5 -49 11
-31 8 -38 14 -35 32 4 32 72 37 88 8 16 -30 50 -28 50 3 0 46 -75 71 -136 46z"/>
<path d="M2928 1415 c-2 -3 -393 -6 -869 -7 -475 -1 -930 -4 -1011 -6 -147 -3
-148 -3 -148 -26 0 -13 7 -29 15 -36 13 -11 14 -8 9 17 l-6 30 249 6 c136 4
588 8 1003 8 415 1 910 5 1100 9 l345 6 -341 2 c-187 1 -343 0 -346 -3z"/>
<path d="M3575 1350 c-3 -6 1 -7 9 -4 18 7 21 14 7 14 -6 0 -13 -4 -16 -10z"/>
<path d="M3528 1333 c7 -3 16 -2 19 1 4 3 -2 6 -13 5 -11 0 -14 -3 -6 -6z"/>
<path d="M970 1320 c0 -5 7 -10 15 -10 8 0 15 5 15 10 0 6 -7 10 -15 10 -8 0
-15 -4 -15 -10z"/>
<path d="M3403 1323 c9 -2 23 -2 30 0 6 3 -1 5 -18 5 -16 0 -22 -2 -12 -5z"/>
<path d="M1096 1310 c7 -7 19 -7 35 -1 23 9 22 10 -10 10 -24 1 -32 -2 -25 -9z"/>
<path d="M3273 1305 c-9 -24 1 -27 15 -5 8 13 8 20 2 20 -6 0 -13 -7 -17 -15z"/>
<path d="M1222 1297 c9 -10 20 -26 23 -37 3 -11 10 -20 15 -20 14 0 -24 63
-40 68 -11 4 -10 1 2 -11z"/>
<path d="M3300 1230 c8 -5 20 -10 25 -10 6 0 3 5 -5 10 -8 5 -19 10 -25 10 -5
0 -3 -5 5 -10z"/>
<path d="M1138 1193 c-10 -2 -18 -9 -18 -14 0 -13 13 -11 36 6 19 14 14 17
-18 8z"/>
<path d="M3450 1120 c-34 -29 -20 -34 15 -5 17 13 25 24 19 25 -6 0 -21 -9
-34 -20z"/>
<path d="M1064 1091 c20 -22 26 -25 26 -13 0 4 -10 13 -22 21 -23 14 -23 14
-4 -8z"/>
<path d="M3068 1073 c7 -3 16 -2 19 1 4 3 -2 6 -13 5 -11 0 -14 -3 -6 -6z"/>
<path d="M1428 1063 c7 -3 16 -2 19 1 4 3 -2 6 -13 5 -11 0 -14 -3 -6 -6z"/>
<path d="M3370 1055 c-17 -10 -20 -14 -9 -15 9 0 22 7 29 15 15 18 12 18 -20
0z"/>
<path d="M1355 1050 c4 -6 11 -8 16 -5 14 9 11 15 -7 15 -8 0 -12 -5 -9 -10z"/>
<path d="M2975 1050 c-3 -5 -1 -10 4 -10 6 0 11 5 11 10 0 6 -2 10 -4 10 -3 0
-8 -4 -11 -10z"/>
<path d="M1255 1030 c-3 -5 -2 -10 4 -10 5 0 13 5 16 10 3 6 2 10 -4 10 -5 0
-13 -4 -16 -10z"/>
<path d="M1158 1023 c7 -3 16 -2 19 1 4 3 -2 6 -13 5 -11 0 -14 -3 -6 -6z"/>
<path d="M1208 1023 c7 -3 16 -2 19 1 4 3 -2 6 -13 5 -11 0 -14 -3 -6 -6z"/>
<path d="M1553 1018 c-18 -24 -24 -38 -16 -38 4 0 13 11 20 25 12 27 11 32 -4
13z"/>
<path d="M2970 1011 c0 -7 13 -26 30 -44 34 -37 38 -62 13 -91 -18 -20 -18
-20 7 -4 37 23 35 38 -10 98 -22 29 -40 48 -40 41z"/>
<path d="M1488 935 c-32 -37 -35 -47 -13 -39 8 4 15 12 15 20 0 7 9 18 20 24
11 6 20 15 20 20 0 18 -14 9 -42 -25z"/>
<path d="M1900 922 c0 -4 18 -6 40 -4 22 2 40 6 40 8 0 2 -18 4 -40 4 -22 0
-40 -3 -40 -8z"/>
<path d="M1848 892 c-21 -14 -36 -27 -34 -30 7 -6 76 38 76 49 0 11 3 12 -42
-19z"/>
<path d="M2022 913 c15 -2 29 -12 31 -21 3 -12 5 -10 6 6 1 19 -4 22 -31 21
-30 -2 -30 -2 -6 -6z"/>
<path d="M2478 913 c7 -3 16 -2 19 1 4 3 -2 6 -13 5 -11 0 -14 -3 -6 -6z"/>
<path d="M2456 883 c-6 -14 -5 -15 5 -6 7 7 10 15 7 18 -3 3 -9 -2 -12 -12z"/>
<path d="M2660 885 c0 -2 15 -12 33 -20 l32 -16 -24 21 c-22 19 -41 26 -41 15z"/>
<path d="M2061 863 c0 -5 4 -17 9 -28 8 -18 9 -17 9 8 1 15 -3 27 -9 27 -5 0
-10 -3 -9 -7z"/>
<path d="M1779 843 c-13 -16 -12 -17 4 -4 16 13 21 21 13 21 -2 0 -10 -8 -17
-17z"/>
<path d="M2440 860 c-8 -26 -7 -41 2 -32 6 6 8 16 5 24 -3 7 -6 11 -7 8z"/>
<path d="M2737 839 c7 -7 15 -10 18 -7 3 3 -2 9 -12 12 -14 6 -15 5 -6 -5z"/>
<path d="M2770 830 c0 -5 5 -10 11 -10 5 0 7 5 4 10 -3 6 -8 10 -11 10 -2 0
-4 -4 -4 -10z"/>
<path d="M1688 823 c12 -2 30 -2 40 0 9 3 -1 5 -23 4 -22 0 -30 -2 -17 -4z"/>
<path d="M2090 790 c6 -11 12 -20 14 -20 2 0 2 9 -1 20 -3 11 -9 20 -15 20 -5
0 -4 -9 2 -20z"/>
<path d="M2420 795 c0 -8 2 -15 4 -15 2 0 6 7 10 15 3 8 1 15 -4 15 -6 0 -10
-7 -10 -15z"/>
<path d="M2138 763 c7 -3 16 -2 19 1 4 3 -2 6 -13 5 -11 0 -14 -3 -6 -6z"/>
<path d="M2353 763 c9 -2 23 -2 30 0 6 3 -1 5 -18 5 -16 0 -22 -2 -12 -5z"/>
</g>
</svg>
